<?xml version="1.0" encoding="utf-8"?>
<!-- Generator: Adobe Illustrator 22.0.0, SVG Export Plug-In . SVG Version: 6.00 Build 0)  -->
<svg version="1.1" id="Capa_1" xmlns="http://www.w3.org/2000/svg" xmlns:xlink="http://www.w3.org/1999/xlink" x="0px" y="0px"
	 viewBox="0 0 426 435.7" style="enable-background:new 0 0 426 435.7;" xml:space="preserve">
<style type="text/css">
	.st0{fill:#7E9300;}
</style>
<path class="st0" d="M136.1,101.7c-21.5,16.5-31.5,37.2-27.2,52.3c10,20.8,32.2,26.5,58.8,15.8c25.8-15.8,36.5-37.3,25.8-57.3
	C186.3,96.7,163.4,85.2,136.1,101.7L136.1,101.7z M408.4,60.1c24.4-24.4-4.3-66.6-38-36.5l-48,46.6C238.6-2.2,114.7-7.2,53,54.4
	c-68.1,58-52.3,172.6,15.8,260l-44.4,49.4c-22.2,27.2,2.9,60.9,32.2,37.3l43-49.4c83.8,73.1,182.7,113.2,275.8,21.5
	c62.3-65.2,55.2-174.1-17.9-267.2L408.4,60.1z M339.6,334.5C184.9,480.7-38.7,170.4,92.4,82.3c47.3-40.8,129-36.5,192,16.5
	l-22.2,19.3l39.4,42.3l22.9-22.9C382.6,205.5,386.9,282.9,339.6,334.5L339.6,334.5z"/>
</svg>
