<?xml version="1.0" encoding="utf-8"?>
<!-- Generator: Adobe Illustrator 22.0.0, SVG Export Plug-In . SVG Version: 6.00 Build 0)  -->
<svg version="1.1" id="Capa_1" xmlns="http://www.w3.org/2000/svg" xmlns:xlink="http://www.w3.org/1999/xlink" x="0px" y="0px"
	 viewBox="0 0 397 559" style="enable-background:new 0 0 397 559;" xml:space="preserve">
<style type="text/css">
	.st0{fill:#683B32;}
</style>
<path class="st0" d="M185,17.5c0-4.6-1.9-9-5.2-12.3C174.1,0,174.1,0,44.9,0c-4.6,0-9.1,1.8-12.4,5.1s-5.1,7.7-5.1,12.4
	c0.5,20.5-2.7,41-9.5,60.4c-8,22.7-11.9,46.8-11.4,70.9c-0.5,24.1,3.3,48.2,11.4,71c6.8,19.4,10.1,39.8,9.6,60.3
	c0.4,20.5-2.8,40.9-9.6,60.3c-8,22.8-11.9,46.8-11.4,71c-0.5,24.1,3.3,48.2,11.4,71c6.8,19.4,10.1,39.8,9.6,60.3
	c0,4.6,1.8,9.1,5.1,12.4S40.3,560,45,560h122.5c4.6,0,9.1-1.8,12.4-5.1s5.1-7.7,5.1-12.4c0.5-24.1-3.3-48.1-11.4-70.9
	c-6.8-19.4-10.1-39.8-9.6-60.4c-0.4-20.5,2.8-40.9,9.6-60.2c8.1-22.8,11.9-46.9,11.4-71.1c0.5-24.1-3.3-48.1-11.4-70.9
	c-6.8-19.4-10.1-39.8-9.6-60.4c-0.4-20.5,2.8-40.9,9.6-60.2C181.6,65.7,185.5,41.7,185,17.5L185,17.5z M79.1,482.3
	c4.8,13.8,7.7,28.2,8.8,42.8H61.6c-1-18.2-4.5-36.2-10.5-53.5c-6.8-19.4-10.1-39.8-9.6-60.4c-0.4-20.5,2.8-40.9,9.6-60.2
	c8.1-22.8,11.9-46.9,11.4-71.1c0.5-24.1-3.3-48.1-11.4-70.9c-6.8-19.4-10.1-39.8-9.6-60.4c-0.4-20.5,2.8-40.9,9.6-60.2
	c6.2-17.2,9.8-35.3,10.9-53.6h26.3c-1.1,14.6-4,29-8.8,42.9c-8.1,22.7-12.1,46.7-11.7,70.9c-0.5,24.1,3.3,48.2,11.4,71
	c6.8,19.4,10.1,39.8,9.6,60.3c0.4,20.5-2.8,40.9-9.6,60.3c-8,22.8-11.9,46.8-11.4,71C67.2,435.4,71,459.5,79.1,482.3L79.1,482.3z"/>
<path class="st0" d="M393.2,17.5c0-4.6-1.9-9-5.2-12.3C382.4,0,382.4,0,253.1,0c-4.6,0-9.1,1.8-12.4,5.1s-5.1,7.7-5.1,12.4
	c0.5,20.5-2.7,41-9.5,60.4c-8,22.7-11.9,46.8-11.4,70.9c-0.5,24.2,3.3,48.2,11.4,71.1c6.8,19.3,10.1,39.7,9.6,60.2
	c0.5,20.5-2.8,41-9.6,60.4c-8,22.7-11.9,46.8-11.4,70.9c-0.5,24.2,3.3,48.3,11.4,71.1c6.8,19.3,10,39.7,9.6,60.2
	c0,4.6,1.8,9.1,5.1,12.4s7.7,5.1,12.4,5.1h122.5c4.6,0,9.1-1.8,12.4-5.1s5.1-7.7,5.1-12.4c0.5-24.1-3.3-48.2-11.4-71
	c-6.8-19.4-10.1-39.8-9.6-60.3c-0.4-20.5,2.8-40.9,9.6-60.3c8-22.8,11.9-46.8,11.4-71c0.5-24.1-3.3-48.2-11.4-71
	c-6.8-19.4-10.1-39.8-9.6-60.3c-0.4-20.5,2.8-40.9,9.6-60.3C389.9,65.7,393.7,41.6,393.2,17.5L393.2,17.5z M287.3,482.3
	c4.8,13.8,7.7,28.1,8.8,42.7h-26.3c-1-18.2-4.5-36.2-10.5-53.4c-6.8-19.4-10.1-39.8-9.6-60.4c-0.4-20.5,2.8-40.9,9.6-60.3
	c8-22.8,11.9-46.8,11.4-71c0.5-24.1-3.3-48.2-11.4-71c-6.8-19.4-10.1-39.8-9.6-60.3c-0.4-20.5,2.8-40.9,9.6-60.3
	c6-17.2,9.6-35.2,10.5-53.5h26.3c-1.1,14.6-4,29-8.8,42.9c-8,22.7-11.9,46.8-11.4,70.9c-0.5,24.2,3.3,48.2,11.4,71.1
	c6.8,19.3,10.1,39.7,9.6,60.2c0.5,20.5-2.8,41-9.6,60.4c-8,22.7-11.9,46.8-11.4,70.9C275.4,435.4,279.3,459.5,287.3,482.3
	L287.3,482.3z"/>
</svg>
