<?xml version="1.0" encoding="utf-8"?>
<!-- Generator: Adobe Illustrator 22.0.0, SVG Export Plug-In . SVG Version: 6.00 Build 0)  -->
<svg version="1.1" id="Capa_1" xmlns="http://www.w3.org/2000/svg" xmlns:xlink="http://www.w3.org/1999/xlink" x="0px" y="0px"
	 viewBox="0 0 458.2 343.5" style="enable-background:new 0 0 458.2 343.5;" xml:space="preserve">
<style type="text/css">
	.st0{fill:#423E3E;}
</style>
<path class="st0" d="M151.6,174.7L79,175c-3.1,13.7-6.2,26.6-6.2,30.5c0,19,10.9,25.5,42.3,25.5c31.6,0,42.6-6.4,42.6-25.5
	C157.7,201.3,154.6,188.7,151.6,174.7L151.6,174.7z M52.7,156.2h127.1c38.4,0,47-21.3,47-52.4c0-58-47-96.9-111.7-96.9
	C51.6,7,3.7,45.9,3.7,103.3C3.7,134.9,12.4,156.2,52.7,156.2L52.7,156.2z M451.4,215.8c0-58-47-96.9-111.7-96.9
	c-63.6,0-111.4,38.9-111.4,96.3c0,30.5,8.1,52.9,44.8,52.9c29.1,0,14.3-46.8,29.7-46.8c5.6,0,7.3,1.7,7.3,9.5
	c0,21.6-12.6,76.4-12.6,86.5c0,19,10.9,25.5,42.3,25.5c31.6,0,42.6-6.4,42.6-25.5c0-10.9-12.9-64.7-12.9-86.5c0-7.8,2-9.5,7.6-9.5
	c17.1,0-1.4,46.8,31.6,46.8C443.3,268.2,451.4,245.8,451.4,215.8L451.4,215.8z"/>
</svg>
