<?xml version="1.0" encoding="utf-8"?>
<!-- Generator: Adobe Illustrator 22.0.0, SVG Export Plug-In . SVG Version: 6.00 Build 0)  -->
<svg version="1.1" id="Capa_1" xmlns="http://www.w3.org/2000/svg" xmlns:xlink="http://www.w3.org/1999/xlink" x="0px" y="0px"
	 viewBox="0 0 451 508.6" style="enable-background:new 0 0 451 508.6;" xml:space="preserve">
<style type="text/css">
	.st0{fill:#891000;}
</style>
<path class="st0" d="M203.8,155.6c-3.3,3.3-5.2,7.7-5.2,12.4c0,9.6,7.9,17.5,17.5,17.5c9.3,0,16.8-7.2,17.4-16.3
	c-3.1-1.9-6.4-3.8-9.8-5.6C216.7,159.9,210.1,157.2,203.8,155.6L203.8,155.6z"/>
<path class="st0" d="M274.8,179.3c0.8,0.8,18.6,18.7,31.1,42.6c8.5,16.2,11.9,30.1,12.1,41.8l58.2-58.2
	c31.4-31.4,45.3-63.2,41.4-94.6c-9.8,17.7-19.7,27.7-20.3,28.3c-1.7,1.7-3.9,2.6-6.2,2.6s-4.5-0.9-6.2-2.6c-3.4-3.4-3.4-8.9,0-12.4
	c0.2-0.2,15.1-15.4,25.4-41.4c-3.6-7.8-7.7-14.1-11-18.4l-19.6,19.6c-1.7,1.7-3.9,2.6-6.2,2.6s-4.5-0.9-6.2-2.6
	c-3.4-3.4-3.4-9,0-12.4L387,54.7c-4.3-3.3-10.5-7.4-18.4-11c-26.1,10.4-41.2,25.3-41.3,25.4c-1.7,1.7-3.9,2.6-6.2,2.6
	s-4.5-0.9-6.2-2.6c-3.4-3.4-3.4-9,0-12.4c0.6-0.6,10.6-10.4,28.3-20.3c-31.4-3.9-63.2,10-94.6,41.4l-58.2,58.2
	c11.7,0.2,25.6,3.6,41.8,12.1C256.1,160.7,274,178.5,274.8,179.3L274.8,179.3z"/>
<path class="st0" d="M93.6,404.2c-11.8,0-23.2-2-33.8-5.6c-0.8,4.7-1.2,9.5-1.2,14.3c0,48.2,39.3,87.5,87.5,87.5
	c45.6,0,83.2-35.1,87.1-79.8c-2.7,0.7-5.5,1-8.4,1c-19.3,0-35-15.7-35-35c0-14.4,8.8-26.9,21.3-32.2c-5.7-6.4-12.4-12-20-16.5
	C175.7,376.7,137.8,404.2,93.6,404.2L93.6,404.2z M119.9,474.2c-14.5,0-26.3-11.8-26.3-26.3s11.8-26.3,26.3-26.3
	s26.3,11.8,26.3,26.3S134.3,474.2,119.9,474.2z M181.1,456.7c-4.8,0-8.8-3.9-8.8-8.8s3.9-8.8,8.8-8.8s8.8,3.9,8.8,8.8
	S185.9,456.7,181.1,456.7z"/>
<path class="st0" d="M417.6,62.5c16.1-1.7,23.3-7.8,25.8-10.8C442,41,432.3,29,428.7,25.4c-3.9-3.8-15.6-13.4-26.3-14.8
	c-3,2.6-9.1,9.7-10.8,25.8c7.8,5.2,12.8,9.9,14.5,11.6C407.7,49.7,412.4,54.7,417.6,62.5z"/>
<path class="st0" d="M93.6,386.7c48.2,0,87.5-39.3,87.5-87.5c0-5.2-0.5-10.5-1.4-15.6c-2.9-2.6-4.6-4.2-4.8-4.5
	c-0.8-0.8-18.6-18.7-31.1-42.6c-2.3-4.4-4.3-8.7-5.9-12.8c-13.4-7.9-28.7-12.1-44.4-12.1c-48.2,0-87.5,39.3-87.5,87.5
	S45.4,386.7,93.6,386.7L93.6,386.7z M128.6,264.2c4.8,0,8.8,3.9,8.8,8.8s-3.9,8.8-8.8,8.8c-4.8,0-8.8-3.9-8.8-8.8
	S123.8,264.2,128.6,264.2z M128.6,299.2c14.5,0,26.3,11.8,26.3,26.3s-11.8,26.3-26.3,26.3s-26.3-11.8-26.3-26.3
	S114.1,299.2,128.6,299.2z M67.4,238c14.5,0,26.3,11.8,26.3,26.3s-11.8,26.3-26.3,26.3s-26.2-11.8-26.2-26.3S52.9,238,67.4,238z
	 M49.9,316.7c4.8,0,8.8,3.9,8.8,8.8s-3.9,8.8-8.8,8.8s-8.8-3.9-8.8-8.8S45,316.7,49.9,316.7z"/>
<path class="st0" d="M251.1,246.7c0,4.8-3.9,8.8-8.8,8.8s-8.8-3.9-8.8-8.8s3.9-8.8,8.8-8.8S251.1,241.9,251.1,246.7"/>
<path class="st0" d="M137.4,325.5c0,4.8-3.9,8.8-8.8,8.8c-4.8,0-8.8-3.9-8.8-8.8s3.9-8.8,8.8-8.8
	C133.4,316.7,137.4,320.6,137.4,325.5"/>
<path class="st0" d="M76.1,264.2c0,4.8-3.9,8.8-8.8,8.8s-8.7-3.9-8.7-8.8s3.9-8.8,8.7-8.8S76.1,259.4,76.1,264.2"/>
<path class="st0" d="M187.3,266.8c0.2,0.2,17.1,16.9,38.6,28.1c26.6,13.8,47.7,13.2,62.7-1.9s15.7-36.2,1.9-62.7
	c-11.2-21.6-28-38.5-28.1-38.6c-0.1-0.1-5.2-5.2-13.4-11.6c-4.9,13.4-17.8,22.9-32.9,22.9c-19.3,0-35-15.7-35-35c0-4.9,1-9.7,2.9-14
	c-8.8,1.1-16.5,4.9-23,11.4c-15.1,15.1-15.7,36.2-1.9,62.7C170.4,249.7,187.1,266.6,187.3,266.8L187.3,266.8z M242.4,220.5
	c14.5,0,26.2,11.8,26.2,26.3S256.8,273,242.4,273c-14.5,0-26.3-11.8-26.3-26.3S227.9,220.5,242.4,220.5z M181.1,211.7
	c4.8,0,8.8,3.9,8.8,8.8s-3.9,8.8-8.8,8.8s-8.8-3.9-8.8-8.8S176.3,211.7,181.1,211.7z"/>
<path class="st0" d="M224.9,404.2c2.8,0,5.6-0.7,8.1-2c-1.5-11.7-5.2-22.8-11-32.8c-8.3,1.4-14.6,8.6-14.6,17.2
	C207.4,396.4,215.2,404.2,224.9,404.2L224.9,404.2z"/>
<path class="st0" d="M128.6,448c0,4.8-3.9,8.8-8.8,8.8s-8.8-3.9-8.8-8.8s3.9-8.8,8.8-8.8S128.6,443.1,128.6,448"/>
</svg>
