<?xml version="1.0" encoding="utf-8"?>
<!-- Generator: Adobe Illustrator 22.0.0, SVG Export Plug-In . SVG Version: 6.00 Build 0)  -->
<svg version="1.1" id="Capa_1" xmlns="http://www.w3.org/2000/svg" xmlns:xlink="http://www.w3.org/1999/xlink" x="0px" y="0px"
	 viewBox="0 0 477.7 479.5" style="enable-background:new 0 0 477.7 479.5;" xml:space="preserve">
<style type="text/css">
	.st0{fill:#BF5B4B;}
</style>
<path class="st0" d="M381.5,317.4l18.1,18.1c20.4-7.8,43.7-3.1,59.3,12.6c21.6,21.7,21.6,57,0,78.6c-5.9,5.9-12.6,10.1-20.2,12.9
	c-2.8,7.6-7.1,14.4-12.9,20.2c-21.7,21.7-57,21.7-78.6,0c-15.6-15.6-20.4-38.8-12.6-59.3l-18.1-18.1c-45.1,13.7-91.5,14.2-139.9,2.4
	c-62.9-15.3-122.1-50.4-161.4-102.5C-31.2,231.8,61,121.7,91,91.7c29.8-29.8,142.2-124.1,191.8-74.6
	c49.4,38.4,85.6,96.9,101.1,160.3C395.5,225.4,395.2,272.2,381.5,317.4L381.5,317.4z M345.3,371.6l24.1,24.1
	c-9.2,14.2-17.7,29-2.6,44.2c10.8,10.8,28.2,10.8,39,0c7.2-7.2,7.7-14.5,9.4-23.7c9.8-1.9,16.6-2.3,23.7-9.4
	c10.8-10.8,10.9-28.2,0-39c-15.2-15.2-29.9-6.7-44.2,2.6l-24.1-24.1c-2.5,5.8-5.3,11.5-8.3,17.2
	C356.8,366.4,351.1,369.1,345.3,371.6L345.3,371.6z M65.6,296c32.4,29.4,73.7,51,117.5,61.7c52.8,12.8,109.5,9.7,158.7-15
	c24.7-49.2,27.8-105.8,15-158.7c-10.7-43.8-32.3-85-61.6-117.4c-4,28.6-21.7,60.6-37.9,84c-10.5,15.2-33.4-0.9-23-15.9
	c11.7-16.9,48.4-78.1,28.7-97.7C231,4.9,124,98.3,110.8,111.5C97.6,124.8,4.1,231.7,36.2,263.8c18.7,18.7,76.4-14.5,92.9-25.5
	c15.1-10.2,30.8,12.9,15.5,23.2C119.8,278,94.9,290.7,65.6,296L65.6,296z M207.5,168.9c12.5-13.7,33,5.4,20.7,18.8
	c-6.6,7.3-13,14-19.8,21.1c-12.8,13.2-32.8-6.3-20.1-19.4L207.5,168.9z"/>
</svg>
