<?xml version="1.0" encoding="utf-8"?>
<!-- Generator: Adobe Illustrator 22.0.0, SVG Export Plug-In . SVG Version: 6.00 Build 0)  -->
<svg version="1.1" id="Capa_1" xmlns="http://www.w3.org/2000/svg" xmlns:xlink="http://www.w3.org/1999/xlink" x="0px" y="0px"
	 viewBox="0 0 519.8 522.6" style="enable-background:new 0 0 519.8 522.6;" xml:space="preserve">
<style type="text/css">
	.st0{fill:#E5D400;}
</style>
<g>
	<path class="st0" d="M27.4,331.3c-4.1,0-8.2-1.1-11.8-3.2s-6.5-5.1-8.5-8.7c-2.4-4.3-3.5-9.2-2.9-14.1c0.5-4.9,2.6-9.5,6-13.2
		l144.7-158v0c5.2-5.7,12.8-8.4,20.4-7.4c7.6,1,14.2,5.7,17.7,12.5c2,3.4,5.6,5.5,9.6,5.4c6.4,1.4,12.8-2.8,14.1-9.2
		c1.4-6.4-2.8-12.8-9.2-14.1c-6.8-3.1-11.8-9.2-13.3-16.6c-1.5-7.3,0.5-15,5.6-20.5l67.2-73.3c4.7-4.4,10.9-6.6,17.3-6.3h23.3
		c55.7,0,109.1,22.1,148.5,61.5c39.4,39.4,61.5,92.8,61.5,148.5c0.1,5.5-1.7,10.8-5.1,15c-3.4,4.3-8.2,7.2-13.6,8.3l-235.4,46.7
		c-5.5,0.9-11.1-0.2-15.9-3.1c-4.8-2.9-8.3-7.4-10-12.7c-1.7-4.9-6.5-8-11.7-7.5c-6.1,0-11.2,4.7-11.7,10.7c0.7,5.2-0.4,10.4-3,14.9
		c-3.4,5.7-8.9,9.6-15.4,11L32.1,331.3L27.4,331.3z M173,183.3l-80,87.7l77-15.6c3.8-11.8,11.2-22.2,21.2-29.5
		c10-7.3,22.1-11.3,34.6-11.3c17.2,0,33.5,7.6,44.6,20.8l200.4-39.7c-4.7-40-23.9-76.8-54-103.5c-30.1-26.7-69.1-41.2-109.3-41
		h-13.1l-44.1,48.1c8.1,11.7,11.7,26.1,10,40.3c-1.7,14.2-8.5,27.3-19.1,36.8s-24.4,14.8-38.7,14.9
		C192.1,191.3,181.9,188.6,173,183.3L173,183.3z"/>
	<path class="st0" d="M27.4,517.9c-5.4,0-10.6-1.9-14.7-5.4c-5.4-4.4-8.6-11-8.6-18V307.9c-0.1-5.5,1.7-10.8,5.1-15
		c3.4-4.3,8.2-7.2,13.6-8.3l163.3-32.9c6.6-1.3,13.5,0.3,18.9,4.4c5.4,4.1,8.7,10.5,9.1,17.3c0.3,6.1,5.3,10.9,11.4,10.7
		c3.1,0,6.1-1.2,8.3-3.4s3.4-5.2,3.4-8.3c0.1-0.9,0.1-1.9,0-2.8c-2.9-6.3-2.9-13.6,0-19.8c3.3-6,9.1-10.3,15.9-11.7l236.4-46.9
		c6.9-1.4,14,0.4,19.4,4.9c5.5,4.5,8.7,11.3,8.6,18.4v186.7c0.1,5.5-1.7,10.8-5.1,15c-3.4,4.3-8.2,7.2-13.6,8.3l-258.1,51.1
		c-6.1,1.2-12.4-0.1-17.5-3.5c-4.9-3.6-8.1-9-9.1-14.9c-1-5.5-5.9-9.4-11.4-9.3c-6.4,0-11.7,5.2-11.7,11.7c0.2,2.3,0.2,4.5,0,6.8
		c0.1,5.5-1.7,10.8-5.1,15c-3.4,4.3-8.2,7.2-13.6,8.3L32.1,517.9L27.4,517.9z M50.7,327.1v140l93.3-19.1c2.8-13.1,10-24.9,20.4-33.4
		c10.4-8.5,23.4-13.2,36.8-13.3c19.2-0.1,37.2,9.4,48.1,25.2l221.4-44.3v-140l-186.7,37.3c-2,16.3-10.9,31-24.3,40.4
		c-13.4,9.5-30.2,12.8-46.2,9.2c-16-3.6-29.8-13.7-38-28L50.7,327.1z"/>
	<path class="st0" d="M365.7,401.3c-15.5,0-30.3-6.1-41.2-17.1c-10.9-10.9-17.1-25.8-17.1-41.2c0-15.5,6.1-30.3,17.1-41.3
		c10.9-10.9,25.8-17.1,41.2-17.1s30.3,6.1,41.2,17.1c10.9,10.9,17.1,25.8,17.1,41.3c0,15.5-6.1,30.3-17.1,41.2
		C396.1,395.1,381.2,401.3,365.7,401.3L365.7,401.3z M365.7,331.3c-4.7,0-9,2.8-10.8,7.2c-1.8,4.4-0.8,9.4,2.5,12.7
		c3.3,3.3,8.4,4.3,12.7,2.5c4.4-1.8,7.2-6.1,7.2-10.8c0-3.1-1.2-6.1-3.4-8.3S368.8,331.3,365.7,331.3L365.7,331.3z"/>
	<path class="st0" d="M365.7,191.3c-15.5,0-30.3-6.1-41.2-17.1c-10.9-10.9-17.1-25.8-17.1-41.2c0-15.5,6.1-30.3,17.1-41.2
		c10.9-10.9,25.8-17.1,41.2-17.1s30.3,6.1,41.2,17.1c10.9,10.9,17.1,25.8,17.1,41.2c0,15.5-6.1,30.3-17.1,41.2
		C396.1,185.1,381.2,191.3,365.7,191.3L365.7,191.3z M365.7,121.3c-4.7,0-9,2.8-10.8,7.2c-1.8,4.4-0.8,9.4,2.5,12.7
		c3.3,3.3,8.4,4.3,12.7,2.5c4.4-1.8,7.2-6.1,7.2-10.8c0-3.1-1.2-6.1-3.4-8.2S368.8,121.3,365.7,121.3L365.7,121.3z"/>
</g>
</svg>
