<?xml version="1.0" encoding="utf-8"?>
<!-- Generator: Adobe Illustrator 22.0.0, SVG Export Plug-In . SVG Version: 6.00 Build 0)  -->
<svg version="1.1" id="Capa_1" xmlns="http://www.w3.org/2000/svg" xmlns:xlink="http://www.w3.org/1999/xlink" x="0px" y="0px"
	 viewBox="0 0 525.2 567.6" style="enable-background:new 0 0 525.2 567.6;" xml:space="preserve">
<style type="text/css">
	.st0{fill:#007F0F;}
</style>
<path class="st0" d="M483.3,187.2c-16.4-16.1-37.2-27.1-59.8-31.7c-22.6-4.6-46-2.5-67.4,5.9c-1,0.4-2,0.9-2.9,1.5
	c-6.8-5.5-14.1-10.3-22-14.2l-3.2-1.6c-1.7-0.8-3.2-1.5-4.9-2.1c5.5-29.5,8.2-59.5,8.1-89.5c0-17.1-8.1-33.2-22-43.3
	c-13.9-10.1-31.7-12.8-48-7.5l-33.6,10.9c-13.1,4.2-24.1,13.3-30.6,25.4c-6.5,12.1-8.1,26.3-4.4,39.5c5.5,19.9,7.5,40.6,6,61.3v3.4
	v0c-10.5,4.3-20.2,10.3-28.9,17.5c-0.9-0.5-1.9-1-2.9-1.5c-13.9-5.5-28.8-8.3-43.8-8.3c-37.7-0.1-73.2,17.8-95.7,48.1
	S-1.7,270.6,9.4,306.7L66.2,492c9,29.1,32.1,51.6,61.3,59.9c29.3,8.3,60.8,1.2,83.6-18.9c0.5,0,0.9-1,1.3-1.4
	c15.9,17.5,32.6,26.3,49.9,26.3c17.5,0,33.9-9.6,48.6-25.4l0.7,0.7c22.9,20.1,54.4,27.2,83.6,18.9c29.3-8.3,52.4-30.8,61.3-59.9
	l56.9-185.3c6.4-20.8,7-43,1.6-64.1C509.8,221.7,498.8,202.4,483.3,187.2L483.3,187.2z M241.2,57.3l33.6-10.9c2.9-0.9,6-0.5,8.5,1.2
	c2.5,1.7,4,4.5,4.1,7.5c-0.1,26.7-2.5,53.3-7.2,79.6h-9.9c-3.1,0-27.5,0-27.5,0.5c0-22.4-2.6-44.7-7.9-66.4
	C233.8,64,236.5,58.9,241.2,57.3L241.2,57.3z M182.5,500.3c-11.7,10.3-27.8,13.9-42.8,9.7c-15-4.2-26.8-15.8-31.4-30.7L51.3,294
	c-7-22.8-2.8-47.5,11.4-66.7c14.2-19.2,36.6-30.5,60.4-30.5c6.4,0,12.7,0.8,18.9,2.4c-31,70-0.6,207.9,38.9,284.9
	c2.3,4.5,4.6,8.8,7,12.7v0C185.9,497.8,184.1,498.9,182.5,500.3L182.5,500.3z M262.6,514.1c-5.9,0-22.4-10.4-42.7-49.9
	c-35-68.1-52.9-161.5-45.7-218.1c0-1.4,0-2.8,0.7-4.2c1.3-11.9,5.3-23.3,11.7-33.4c2.4-3.4,5.2-6.5,8.3-9.4
	c14.3-12.6,32.5-19.8,51.5-20.4h31.4c10.8,0.8,21.4,3.4,31.3,7.9c1,0.4,2,0.9,2.9,1.5c2.6,1.2,5.1,2.7,7.4,4.3
	c6.1,4.1,11.4,9.2,15.8,15l2.6,3.9c4.1,9.3,6.9,19.1,8.2,29.1c3.6,28.1,3.6,56.5,0,84.6v1.7c-14.9,103.3-61.4,187.2-83.9,187.3
	L262.6,514.1z M471.7,294l-56.9,185.2c-4.6,14.9-16.4,26.5-31.4,30.7c-15,4.3-31.1,0.6-42.9-9.6c-1.3-1.1-2.7-2.1-4.3-2.9
	c26.9-46.9,45.9-112.6,53.5-166.3l2-15.8c5-74.9-10.6-116.4-10.6-116.4c6.1-1.6,12.5-2.5,18.8-2.4c23.8,0,46.3,11.3,60.4,30.4
	c14.2,19.2,18.4,43.9,11.3,66.7L471.7,294z"/>
<path class="st0" d="M248.6,443.3c-24.4-55.6-39-115-43.1-175.5C292.6,302.1,248.6,443.3,248.6,443.3L248.6,443.3z"/>
</svg>
