<?xml version="1.0" encoding="utf-8"?>
<!-- Generator: Adobe Illustrator 22.0.0, SVG Export Plug-In . SVG Version: 6.00 Build 0)  -->
<svg version="1.1" id="Capa_1" xmlns="http://www.w3.org/2000/svg" xmlns:xlink="http://www.w3.org/1999/xlink" x="0px" y="0px"
	 viewBox="0 0 294.1 359.2" style="enable-background:new 0 0 294.1 359.2;" xml:space="preserve">
<style type="text/css">
	.st0{fill:#BF9A00;}
	.st1{fill:#E2CC00;}
	.st2{fill:#009916;}
	.st3{fill:#D33200;}
</style>
<path class="st0" d="M248.4,70.3c-13.7,0-26.6,6.4-34.9,17.3c-8.3,10.9-11,25.1-7.3,38.3c3.7,13.2,13.4,23.9,26.1,28.9l-24,24v37.2
	l70.7-70.7c8.3-8.2,12.9-19.3,13-30.9c0-11.6-4.6-22.8-12.8-31C271.2,75,260,70.3,248.4,70.3L248.4,70.3z"/>
<path class="st0" d="M100.9,286.2l-46.3,46.3c-5.1,5.1-5.1,13.5,0,18.6c5.1,5.1,13.4,5.1,18.6,0l54.5-54.6c-0.6,0.1-1.3,0.1-2,0.1h0
	C116.4,296.6,107.5,292.9,100.9,286.2L100.9,286.2z"/>
<path class="st0" d="M39.5,88.6c68.3-14.7,115.9,5.2,144.3,24.9l0,0c0.2-15.9,6.2-31.3,17-43c10.8-11.8,25.5-19.1,41.4-20.6
	c-41.8-30-115.5-63.2-220.9-39.8c-3.4,0.7-6.5,2.5-9,5c-2.5,2.5-4.1,5.6-4.9,9.1C2.6,48.2,8.1,67.8,22.5,83.4
	C26.9,88,33.3,90,39.5,88.6L39.5,88.6z"/>
<path class="st1" d="M172.7,129.5C146.4,111.2,101,92.8,35,109.6l-3.6,0.9l12.3,205.3l66.4-66.4v12.3h0c0,5.6,3,10.7,7.8,13.5
	c4.8,2.8,10.8,2.8,15.6,0c4.8-2.8,7.8-7.9,7.8-13.5v-40.1c0-4.6,3.7-8.2,8.2-8.2s8.2,3.7,8.2,8.2v64.4v0c0,4.1,1.6,8.1,4.6,11
	c2.9,2.9,6.9,4.6,11,4.6c4.1,0,8.1-1.6,11-4.6c2.9-2.9,4.6-6.9,4.6-11V170.5l13.2-13.2v0c-4-4.3-7.4-9.1-10.1-14.3L172.7,129.5z
	 M69,262.6c-5,0-9.5-3-11.4-7.6c-1.9-4.6-0.9-9.9,2.7-13.5c3.5-3.5,8.9-4.6,13.5-2.7c4.6,1.9,7.6,6.4,7.6,11.4
	C81.4,257,75.9,262.6,69,262.6L69,262.6z M89.9,191.6c-0.1,3.4-2.4,6.3-5.6,7.1c-7.2,2-12.8,7.6-14.8,14.8c-0.8,3.3-3.7,5.6-7.1,5.6
	h-0.5c-2.2,0-4.3-1-5.7-2.8c-1.4-1.8-1.9-4-1.4-6.2c1.6-6.3,4.9-12.1,9.5-16.7c4.6-4.6,10.4-7.9,16.7-9.5c2.2-0.5,4.5,0,6.2,1.4
	c1.8,1.4,2.8,3.5,2.8,5.7L89.9,191.6z M71.8,164.1c-5.6,0-10.9-2.2-14.9-6.2c-3.9-3.9-6.2-9.3-6.2-14.9s2.2-10.9,6.2-14.9
	c3.9-3.9,9.3-6.2,14.9-6.2c5.6,0,10.9,2.2,14.9,6.2c3.9,3.9,6.2,9.3,6.2,14.9S90.6,154,86.7,158C82.7,161.9,77.4,164.1,71.8,164.1z
	 M122.5,213.3c-5,0-9.5-3-11.4-7.6s-0.9-9.9,2.7-13.5c3.5-3.5,8.9-4.6,13.5-2.7c4.6,1.9,7.6,6.4,7.6,11.4c0,3.3-1.3,6.4-3.6,8.7
	C128.9,212,125.8,213.3,122.5,213.3L122.5,213.3z M133.3,166.3L133.3,166.3c-1.2,1.9-3.1,3.2-5.3,3.4c-2.2,0.3-4.4-0.5-6-2.1
	l-0.4-0.4h0c-2.3-2.4-2.8-6.1-1-8.9c3.7-6.6,3.7-14.6-0.1-21.2c-1.7-2.8-1.3-6.3,0.9-8.7l0.6-0.6c1.6-1.6,3.8-2.4,6-2.1
	c2.2,0.3,4.2,1.5,5.3,3.4c3.3,5.6,5.1,12,5.1,18.5C138.4,154.3,136.6,160.7,133.3,166.3L133.3,166.3z"/>
<path class="st2" d="M133.3,166.3L133.3,166.3c-1.2,1.9-3.1,3.2-5.3,3.4c-2.2,0.3-4.4-0.5-6-2.1l-0.4-0.4h0c-2.3-2.4-2.8-6.1-1-8.9
	c3.7-6.6,3.7-14.6-0.1-21.2c-1.7-2.8-1.3-6.3,0.9-8.7l0.6-0.6c1.6-1.6,3.8-2.4,6-2.1c2.2,0.3,4.2,1.5,5.3,3.4
	c3.3,5.6,5.1,12,5.1,18.5C138.4,154.3,136.6,160.7,133.3,166.3L133.3,166.3z"/>
<path class="st3" d="M71.8,164.1c-5.6,0-10.9-2.2-14.9-6.2c-3.9-3.9-6.2-9.3-6.2-14.9s2.2-10.9,6.2-14.9c3.9-3.9,9.3-6.2,14.9-6.2
	c5.6,0,10.9,2.2,14.9,6.2c3.9,3.9,6.2,9.3,6.2,14.9S90.6,154,86.7,158C82.7,161.9,77.4,164.1,71.8,164.1z"/>
<path class="st3" d="M122.5,213.3c-5,0-9.5-3-11.4-7.6s-0.9-9.9,2.7-13.5c3.5-3.5,8.9-4.6,13.5-2.7c4.6,1.9,7.6,6.4,7.6,11.4
	c0,3.3-1.3,6.4-3.6,8.7C128.9,212,125.8,213.3,122.5,213.3L122.5,213.3z"/>
<path class="st2" d="M89.9,191.6c-0.1,3.4-2.4,6.3-5.6,7.1c-7.2,2-12.8,7.6-14.8,14.8c-0.8,3.3-3.7,5.6-7.1,5.6h-0.5
	c-2.2,0-4.3-1-5.7-2.8c-1.4-1.8-1.9-4-1.4-6.2c1.6-6.3,4.9-12.1,9.5-16.7c4.6-4.6,10.4-7.9,16.7-9.5c2.2-0.5,4.5,0,6.2,1.4
	c1.8,1.4,2.8,3.5,2.8,5.7L89.9,191.6z"/>
<path class="st3" d="M69,262.6c-5,0-9.5-3-11.4-7.6c-1.9-4.6-0.9-9.9,2.7-13.5c3.5-3.5,8.9-4.6,13.5-2.7c4.6,1.9,7.6,6.4,7.6,11.4
	C81.4,257,75.9,262.6,69,262.6L69,262.6z"/>
</svg>
