<?xml version="1.0" encoding="utf-8"?>
<!-- Generator: Adobe Illustrator 22.0.0, SVG Export Plug-In . SVG Version: 6.00 Build 0)  -->
<svg version="1.1" id="Capa_1" xmlns="http://www.w3.org/2000/svg" xmlns:xlink="http://www.w3.org/1999/xlink" x="0px" y="0px"
	 viewBox="0 0 540 543" style="enable-background:new 0 0 540 543;" xml:space="preserve">
<style type="text/css">
	.st0{fill:#7A6427;}
</style>
<path class="st0" d="M384.2,7c-61-1.7-118.7,32.5-145.6,87.9c-36.4,73.9-53.8,133.3-52.6,177L123.8,334c-29.7-20.2-71.1-17.4-97.4,9
	c-29.7,29.7-29.7,78.4,0,108.1c11.8,11.8,26.9,19,43.7,21.3c2.2,16.2,9.5,31.9,21.3,43.7c29.7,29.7,78.4,29.7,108.1,0
	c26.3-26.3,29.7-67.8,9-97.4l62.7-61.6c43.7,1.7,102.5-15.7,177-52.6c55.4-27.4,89.6-84.6,87.9-145.6C533.2,76.4,466.5,9.8,384.2,7
	L384.2,7z M168.1,405.2c-3.9,3.9-6.2,9-5.6,14.6c0,5.6,2.8,10.6,6.7,14c0,0,2.2,1.7,2.8,2.2c14.6,14.6,14.6,38.6,0,53.2
	s-38.6,14.6-53.2,0c-8.4-8.4-12.3-20.2-10.6-32.5c1.1-6.2-1.1-12.3-5.6-16.8c-4.5-4.5-10.6-6.2-16.8-5.6
	c-12.3,1.7-24.1-2.2-32.5-10.6c-14.6-14.6-14.6-38.6,0-53.2c14.6-14.6,38.6-14.6,53.8,0.6c0,0,1.7,1.7,1.7,2.2
	c3.9,3.9,8.4,6.7,14,6.7s10.6-1.7,14.6-5.6l59.9-58.8c3.4,6.7,7.8,12.3,12.9,17.4c5,5,11.2,9.5,17.4,12.9L168.1,405.2z M430.7,269.6
	c-98,48.2-168.6,61.6-193.8,36.4c-25.2-25.2-11.8-95.8,36.4-193.8c20.7-42,63.8-67.8,109.8-66.6c62.2,1.7,112,52.1,114.2,114.2
	C498.5,205.8,472.7,248.9,430.7,269.6L430.7,269.6z"/>
<path class="st0" d="M382,81.5c-32.5-1.1-62.2,17.4-76.7,46.5c-3.9,7.8-2.2,16.8,3.9,22.4c1.7,1.7,3.4,2.8,5,3.9
	c9.5,4.5,21.3,0.6,25.8-9c7.8-15.7,23.5-25.2,40.9-24.6c11.2,0.6,21.3,5,29.7,12.9c7.8,7.8,19.6,7.8,27.4,0s7.8-19.6,0-27.4
	C422.9,90.4,402.7,82,382,81.5L382,81.5z"/>
</svg>
