<?xml version="1.0" encoding="utf-8"?>
<!-- Generator: Adobe Illustrator 22.0.0, SVG Export Plug-In . SVG Version: 6.00 Build 0)  -->
<svg version="1.1" id="Capa_1" xmlns="http://www.w3.org/2000/svg" xmlns:xlink="http://www.w3.org/1999/xlink" x="0px" y="0px"
	 viewBox="0 0 711.9 531.5" style="enable-background:new 0 0 711.9 531.5;" xml:space="preserve">
<style type="text/css">
	.st0{fill:#333333;}
</style>
<path class="st0" d="M661.6,240.3l7.6-15.2c23.1-23.8,35.8-55.1,35.8-88.3C705,63.6,645.4,4,572.2,4h-13.3
	C489.4,4,422,18.3,358.5,46.5c-9,4-14.8,13-14.8,22.8c0,13.8,11.2,25,25,25c6.9,0,13.9-1,20.5-2.9c45.8-13.1,93.1-19.7,140.7-19.7
	h58c27.2,0,49.4,22.1,49.4,49.4c0,9.8-2.9,19.2-8.3,27.4l-10.2,15.4l-15.3,5.1v-21l-101.6,22.6v-21.3l-82.1,10.3l11.1-22.3l-90.3,10
	l19.1-19.1h-96.9c-12.8,0-25-3.6-35.5-10.4l1.5-1c15.5-10.3,24.7-27.5,24.7-46.1c0-30.6-24.9-55.4-55.4-55.4
	c-25.7,0-48.5,16.4-56.7,40.8L131.7,85c-28.7,9-49.6,33.4-53.9,63.4c-2.6,18-13.8,33.6-30.1,41.7l-24.4,12.2C12,208,5,219.4,5,232.1
	c0,8.9,3.4,17.2,9.7,23.5l16,16c9.5,9.5,22.2,14.8,35.7,14.8c5.4,0,10.8-0.9,16-2.6l49.8-16.6c6.7-2.2,13.7-3.4,20.8-3.4h5.2
	l11.9,38.5c1.1,3.5,2.3,6.9,3.5,10.3l-4.5,26.8c-3.4,20.2-10.5,39.2-21.3,56.5l-39-7.8l-4.4,22.1l36.1,7.2c0,2.2,0.3,4.4,0.9,6.4
	l-30.3,22.7l13.5,18.1l30.9-23.2c1,0.5,2,0.9,3,1.3L152,476l22.1,4.4l8-40.2c1.7-1.1,3.4-2.3,4.8-3.8l6.2-6.2
	c12.9-12.9,25-26.8,36.1-41.4c13.7,10.8,29.1,19.7,45.7,26.1c-1.1,4.9-3,9.5-5.9,13.7l-8.4,12.5l-39.1-7.8l-4.4,22.1l36.1,7.2
	c0,2.2,0.3,4.4,0.9,6.4L224,491.8l13.5,18.1l30.9-23.2c1,0.5,2,0.9,3,1.3l-6.6,33.2l22.1,4.4l8-40.2c1.7-1.1,3.4-2.3,4.8-3.8
	l6.2-6.2c16.7-16.7,31.8-34.8,45.3-54c62.8-2.7,125.2-18.9,181.4-47.1l5.2,6.5c5.7,7.2,8.9,16.2,8.9,25.3c0,8-2.4,15.8-6.8,22.5
	l-8.4,12.5l-39.1-7.8l-4.4,22.1l36.1,7.2c0,2.2,0.3,4.4,0.9,6.4L495,491.8l13.5,18.1l30.9-23.2c1,0.5,2,0.9,3,1.3l-6.6,33.2
	l22.1,4.4l8-40.2c1.7-1.1,3.4-2.3,4.8-3.8l7.7-7.7c29.7-29.7,57.1-62,81.5-96.2c14.6-20.5,22.3-44.6,22.3-69.7
	c0-23.8-7-46.8-20.2-66.6L661.6,240.3z M587.9,49.2h-58c-49.7,0-99.1,6.9-146.9,20.6c-4.7,1.3-9.5,2-14.3,2c-1.3,0-2.4-1.1-2.4-2.4
	c0-0.9,0.6-1.8,1.4-2.2c60.6-26.9,124.9-40.6,191.2-40.6h13.3c60.7,0,110.2,49.4,110.2,110.2c0,25.6-9.2,49.7-25.9,68.8l-19.3-6.4
	v-22.3l10.5-15.7c7.9-11.9,12.1-25.7,12.1-39.9C659.8,81.5,627.5,49.2,587.9,49.2L587.9,49.2z M30.7,239.5c-2-2-3.1-4.7-3.1-7.5
	c0-4,2.2-7.7,5.9-9.5l5.4-2.7l3.5,1.8c4.8,2.4,7.7,7.2,7.7,12.5c0,6-3.9,11.4-9.6,13.3l-1.5,0.5L30.7,239.5z M177.2,414.2l-6.2,6.2
	c-0.9,0.9-2.1,1.4-3.3,1.4c-2.6,0-4.7-2.1-4.7-4.7v-1.8c0-0.9,0.3-1.8,0.8-2.6c13.5-20.2,22.5-42.5,26.9-66.2
	c6.4,9.8,13.6,18.9,21.7,27.1C201.7,387.9,189.9,401.5,177.2,414.2L177.2,414.2z M641.7,364.5c-23.7,33.1-50.3,64.5-79.1,93.3
	l-7.7,7.7c-0.9,0.9-2.1,1.4-3.3,1.4c-2.6,0-4.7-2.1-4.7-4.7v-1.8c0-0.9,0.3-1.8,0.8-2.6l11.2-16.8c6.9-10.4,10.6-22.5,10.6-35
	c0-14.3-4.9-28.3-13.8-39.4l-21.2-26.4c-6.6-8.2-10.2-18.5-10.2-29c0-7.2,1.7-14.3,4.9-20.8l5.2-10.4l-20.2-10.1l-5.2,10.4
	c-4.8,9.5-7.3,20.2-7.3,30.9c0,15.6,5.4,30.9,15.1,43.1l1.5,1.9c-47.3,23-99.1,37.2-151.6,41.5c5.6-9.3,10.9-18.8,15.8-28.6
	c4.1-8.2,6.2-17.3,6.2-26.4c0-9.1-2.2-18.3-6.2-26.4l-6.2-12.5l-20.2,10.1l6.2,12.5c2.5,5,3.9,10.7,3.9,16.3s-1.3,11.3-3.9,16.3
	c-18.6,37.2-42.9,70.9-72.3,100.3l-6.2,6.2c-0.9,0.9-2.1,1.4-3.3,1.4c-2.6,0-4.7-2.1-4.7-4.7v-1.8c0-0.9,0.3-1.8,0.8-2.6l11.2-16.8
	c6.9-10.4,10.6-22.5,10.6-35c0-14.3-4.9-28.3-13.8-39.4l-21.2-26.4c-6.6-8.2-10.2-18.5-10.2-29c0-7.2,1.7-14.3,4.9-20.8l5.2-10.4
	l-20.2-10.1l-5.2,10.4c-4.8,9.5-7.3,20.2-7.3,30.9c0,15.6,5.4,30.9,15.1,43.1l21.2,26.4c2,2.5,3.7,5.3,5.1,8.3
	c-38.4-18.4-67.8-52.2-80.5-93.4l-10.3-33.4c17.4-3.2,33.4-11.6,46.1-24.4l-16-16c-12.4,12.4-28.9,19.3-46.5,19.3h-12
	c-9.5,0-18.9,1.5-28,4.5l-49.8,16.6c-2.8,0.9-5.8,1.4-8.8,1.4c-2.5,0-5-0.4-7.3-1c8.5-6.8,13.7-17.2,13.7-28.5c0-10-4-19.2-10.8-26
	c20.7-11.9,34.8-32.7,38.2-56.5c3.2-22.4,19.5-40.5,41.4-45.9l7.6-1.9l13.5-40.5c5.1-15.2,19.2-25.4,35.2-25.4
	c6.3,0,12.1,1.8,17.1,4.8c-20.4,7.5-37,23.3-45.4,44.2l-5.8,14.5l21,8.4l5.8-14.5c6.8-17.1,21.4-29.4,38.9-33.4
	c0.8,2.8,1.2,5.8,1.2,8.8c0,11-5.5,21.2-14.6,27.3l-25.7,17.1l9.7,9.7c16.7,16.7,38.9,25.9,62.5,25.9h42.4l-26.1,26.1l113-12.6
	l-11.4,22.9l98.6-12.3v23.9l101.6-22.6l0,24.2l33.9-11.3v26.3l29.2,9.7l-8.4,16.8l8,11.9c10.7,16.1,16.4,34.7,16.4,54
	C659.8,328.3,653.6,347.9,641.7,364.5L641.7,364.5z"/>
<path class="st0" d="M140.5,162.1c0,6.2-5.1,11.3-11.3,11.3c-6.2,0-11.3-5.1-11.3-11.3c0-6.2,5.1-11.3,11.3-11.3
	C135.4,150.8,140.5,155.9,140.5,162.1"/>
<path class="st0" d="M318.4,229.5l25.8,6.5l-19.8,19.8l16,16l48-48l-64.5-16.1L318.4,229.5z"/>
<path class="st0" d="M397.4,285.9l25.8,6.5l-19.8,19.8l16,16l48-48L402.9,264L397.4,285.9z"/>
<path class="st0" d="M555.5,263.4l25.8,6.5l-19.8,19.8l16,16l48-48L561,241.5L555.5,263.4z"/>
<path class="st0" d="M465.2,229.5l25.8,6.5l-19.8,19.8l16,16l48-48l-64.5-16.1L465.2,229.5z"/>
</svg>
