<?xml version="1.0" encoding="utf-8"?>
<!-- Generator: Adobe Illustrator 22.0.0, SVG Export Plug-In . SVG Version: 6.00 Build 0)  -->
<svg version="1.1" id="Capa_1" xmlns="http://www.w3.org/2000/svg" xmlns:xlink="http://www.w3.org/1999/xlink" x="0px" y="0px"
	 viewBox="0 0 546.2 562" style="enable-background:new 0 0 546.2 562;" xml:space="preserve">
<style type="text/css">
	.st0{fill:#BF2400;}
</style>
<path class="st0" d="M416.2,122.1c2.2-7.8,3.9-16.2,3.9-25.2c0-2.8,0-5.6-0.6-9l-2.2-20.2l-15.7,12.9C388.8,91.3,358,96.3,334.4,93
	c1.7-21.3,15.1-37.5,22.4-45.9c4.5-5.6,8.4-10.1,6.2-16.2l-1.7-6.2l-2.8-1.1c-13.4-13.4-41.4-20.2-49.3-19
	c-14.6,2.8-35.8,41.4-48.2,87.9c-25.2,4.5-53.8,0-68.3-11.8l-15.7-12.3l-2.2,20.2c-0.6,3.4-0.6,6.2-0.6,9c0,10.1,1.7,19.6,5,28.6
	c-76.2,27.4-114.8,86.8-114.8,176.4c0,10.6,0.6,28,1.7,42.6H12.4l-6.2,6.7v3.9c-1.1,59.9,17.4,110.9,52.6,146.7
	c34.7,35.3,82.9,53.8,139.4,53.8c44.2,0,83.4-11.2,114.8-33c11.2,1.7,22.4,2.2,33.6,2.2c45.9,0,87.4-14.6,121-43.7
	c47-40.3,73.9-105.8,73.9-180.3C541.1,208.3,499.1,147.8,416.2,122.1L416.2,122.1z M256.6,115.9c0.6,8.4,5,14,8.4,17.4
	c7.8,7.3,19.6,10.6,30.8,10.6c7.8,0,15.1-1.7,21.3-4.5l-9.5-20.2c-7.3,3.4-21.3,2.8-26.9-2.2c-0.6-0.6-2.2-2.2-1.7-5.6h0.6l1.7-6.7
	c11.8-47.6,28-71.1,33.6-77.3c5.6,1.1,15.7,3.9,22.4,8.4c-10.1,12.3-28,35.8-25.2,67.2l0.6,7.8l7.8,2.2c21.3,5.6,52.6,4.5,76.2-4.5
	c-3.4,19.6-16.2,33.6-40.3,44.8l-12.9,6.2l9,11.2c3.4,3.9,6.2,7.8,9,11.8c4.5,6.2,9,12.3,14,17.4c-24.6,6.2-51-2.2-70.6-21.8
	l-7.8-7.8l-7.8,7.8c-19.6,20.2-46.5,28-70.6,21.8c5-5,9.5-11.2,14-17.4c2.8-3.9,5.6-7.8,9-11.8l9-11.2l-12.9-6.2
	c-23.5-11.2-35.8-25.2-39.8-44.2C214.6,115.4,235.9,118.2,256.6,115.9L256.6,115.9z M204,386.4l31.9,39.2c2.2,2.8,1.7,5.6,1.1,6.7
	c-0.6,1.1-1.7,3.4-4.5,4.5c-10.6,3.4-22.4,5-34.7,5c-10.1,0-20.2-1.1-29.1-3.4c-3.4-1.1-5-3.9-5-5c-0.6-1.1-1.1-3.9,1.1-6.7l33-40.3
	c1.1-1.1,2.2-1.7,2.8-1.7C201.7,384.7,202.8,384.7,204,386.4L204,386.4z M180.4,371.8l-33,40.3c-6.2,7.8-8.4,18.5-5,28
	c3.4,9.5,10.6,16.8,20.7,19.6c10.6,2.8,22.4,4.5,34.7,4.5c15.1,0,29.1-2.2,42-6.2c9-2.8,16.2-10.1,19-19.6
	c2.8-9.5,0.6-19.6-5.6-27.4l-31.9-39.2c-1.7-2.2-3.4-3.9-5.6-5h16.2l23.5,26.9c7.3,8.4,17.9,11.8,28.6,9
	c10.6-2.8,18.5-10.6,21.3-21.3c1.1-4.5,2.2-9.5,2.8-14.6h21.8c-3.9,76.7-54.9,125.4-132.2,125.4S69.5,443.5,65.6,366.8h21.3
	c0.6,5.6,1.7,10.6,2.8,15.7c2.8,10.6,10.6,18.5,21.3,21.3c10.1,2.8,21.3-0.6,28.6-8.4l25.8-28H186
	C183.8,368.5,182.1,370.2,180.4,371.8L180.4,371.8z M74.6,486.6C45.5,457,29.8,416.1,28.1,366.8h15.1c4.5,89,65.5,147.8,154.6,147.8
	c89.6,0,150.6-58.8,154.6-147.8h15.1c-1.7,49.3-17.4,90.2-46.5,119.8c-30.2,30.8-72.8,47-123.8,47
	C146.3,533.7,104.8,517.4,74.6,486.6L74.6,486.6z M452.6,465.4c-31.4,26.9-71.1,39.8-115.4,38.1l0.6-0.6
	c35.3-35.8,53.8-86.8,52.6-146.7v-3.9l-5.6-7.3h-97.4l-0.6,10.6c-0.6,7.3-1.1,14.6-2.8,21.3c-1.1,3.4-3.9,4.5-5,5
	c-1.1,0.6-3.9,0.6-6.7-2.2L242,345h-86.8l-32.5,35.3c-2.2,2.2-5,2.2-6.2,1.7c-1.1-0.6-3.9-1.1-5-5c-1.7-6.7-2.8-14-3.4-21.8
	l-0.6-10.6H88c-1.1-12.9-2.2-30.8-2.2-42.6c0-81.8,34.2-132.7,103.6-156.8c6.7,7.8,15.1,15.1,25.2,21.3c-0.6,0.6-1.1,1.1-1.1,1.7
	c-7.8,10.6-14.6,20.2-23,23.5l-21.8,8.4l20.2,11.2c2.8,1.7,5,2.8,7.8,3.9c11.8,5,24.1,7.8,37,7.8c21.8,0,44.2-7.8,62.7-23.5
	c28.6,24.1,66.6,30.2,99.1,15.7c2.2-1.1,5-2.2,7.8-3.9l20.2-11.8l-21.8-8.4c-7.8-3.4-14.6-12.3-22.4-23c-0.6-0.6-1.1-1.1-1.1-1.7
	c11.8-7.3,21.3-15.1,28-24.6c75.6,22.4,112.6,74.5,112.6,159.6C518.7,369.6,494.6,429,452.6,465.4L452.6,465.4z"/>
<path class="st0" d="M455.4,190.4l-15.7,15.7c24.6,25.2,36.4,58.2,36.4,101.4h22.4C498.5,258.7,483.9,219.5,455.4,190.4L455.4,190.4
	z"/>
</svg>
